<svg width="142" height="24" viewBox="0 0 142 24" fill="none" xmlns="http://www.w3.org/2000/svg">
<path d="M2.45 16.3H18.45V23.075H2.45V16.3ZM15.2 18.75H5.7V20.6H15.2V18.75ZM1 1.77497H19.875V4.29997H1V1.77497ZM10.475 4.84997C12.975 4.84997 14.8917 5.13331 16.225 5.69997C17.5583 6.24998 18.225 7.06664 18.225 8.14998C18.225 9.24998 17.5583 10.0833 16.225 10.65C14.8917 11.2 12.975 11.475 10.475 11.475C8.00833 11.475 6.1 11.2 4.75 10.65C3.4 10.0833 2.725 9.24998 2.725 8.14998C2.725 7.06664 3.4 6.24998 4.75 5.69997C6.1 5.13331 8.00833 4.84997 10.475 4.84997ZM10.475 7.09998C9.05833 7.09998 8.00833 7.18331 7.325 7.34998C6.64167 7.51664 6.3 7.78331 6.3 8.14998C6.3 8.53331 6.64167 8.80831 7.325 8.97498C8.00833 9.14164 9.05833 9.22497 10.475 9.22497C11.925 9.22497 12.9833 9.14164 13.65 8.97498C14.3333 8.80831 14.675 8.53331 14.675 8.14998C14.675 7.78331 14.3333 7.51664 13.65 7.34998C12.9833 7.18331 11.925 7.09998 10.475 7.09998ZM8.825 -2.54512e-05H12.125V3.57497H8.825V-2.54512e-05ZM7.07805e-08 12.55H20.95V15.125H7.07805e-08V12.55ZM8.825 10.675H12.125V13.9H8.825V10.675ZM39.948 0.174975H43.098V23.325H39.948V0.174975ZM33.148 8.59998H36.248V11.5H33.148V8.59998ZM35.348 0.599974H38.448V22.225H35.348V0.599974ZM23.173 2.77497H33.723V5.42497H23.173V2.77497ZM23.148 18.075L22.798 15.35C23.5147 15.35 24.3397 15.35 25.273 15.35C26.2064 15.3333 27.1814 15.3083 28.198 15.275C29.2147 15.225 30.223 15.1666 31.223 15.1C32.2397 15.0166 33.1897 14.9166 34.073 14.8L34.273 17.2C33.0897 17.4666 31.8147 17.6666 30.448 17.8C29.0814 17.9166 27.7564 17.9916 26.473 18.025C25.2064 18.0583 24.098 18.075 23.148 18.075ZM24.598 4.44998H27.598V16.075H24.598V4.44998ZM29.273 4.44998H32.248V16.075H29.273V4.44998ZM61.8961 0.124974H65.2211V23.35H61.8961V0.124974ZM52.7461 1.74997C53.9294 1.74997 54.9794 2.09164 55.8961 2.77497C56.8128 3.44164 57.5294 4.39998 58.0461 5.64997C58.5794 6.88331 58.8461 8.34164 58.8461 10.025C58.8461 11.725 58.5794 13.2 58.0461 14.45C57.5294 15.6833 56.8128 16.6416 55.8961 17.325C54.9794 17.9916 53.9294 18.325 52.7461 18.325C51.5794 18.325 50.5378 17.9916 49.6211 17.325C48.7044 16.6416 47.9794 15.6833 47.4461 14.45C46.9294 13.2 46.6711 11.725 46.6711 10.025C46.6711 8.34164 46.9294 6.88331 47.4461 5.64997C47.9794 4.39998 48.7044 3.44164 49.6211 2.77497C50.5378 2.09164 51.5794 1.74997 52.7461 1.74997ZM52.7461 4.77497C52.1794 4.77497 51.6794 4.97497 51.2461 5.37498C50.8128 5.77498 50.4711 6.36664 50.2211 7.14997C49.9878 7.91664 49.8711 8.87498 49.8711 10.025C49.8711 11.1583 49.9878 12.125 50.2211 12.925C50.4711 13.7083 50.8128 14.3 51.2461 14.7C51.6794 15.1 52.1794 15.3 52.7461 15.3C53.3294 15.3 53.8378 15.1 54.2711 14.7C54.7044 14.3 55.0378 13.7083 55.2711 12.925C55.5211 12.125 55.6461 11.1583 55.6461 10.025C55.6461 8.87498 55.5211 7.91664 55.2711 7.14997C55.0378 6.36664 54.7044 5.77498 54.2711 5.37498C53.8378 4.97497 53.3294 4.77497 52.7461 4.77497ZM74.5941 3.82497H77.2441V6.42498C77.2441 7.75831 77.1025 9.06664 76.8191 10.35C76.5525 11.6333 76.1441 12.8416 75.5941 13.975C75.0608 15.0916 74.3858 16.0833 73.5691 16.95C72.7525 17.8 71.8025 18.475 70.7191 18.975L68.8191 16.35C69.7858 15.9 70.6275 15.3166 71.3441 14.6C72.0775 13.8833 72.6775 13.0833 73.1441 12.2C73.6275 11.3 73.9858 10.3583 74.2191 9.37498C74.4691 8.37497 74.5941 7.39164 74.5941 6.42498V3.82497ZM75.3191 3.82497H77.9441V6.42498C77.9441 7.34164 78.0608 8.27498 78.2941 9.22497C78.5441 10.1583 78.9025 11.05 79.3691 11.9C79.8358 12.7333 80.4275 13.4833 81.1441 14.15C81.8608 14.8166 82.7108 15.35 83.6941 15.75L81.8691 18.4C80.7691 17.9166 79.8108 17.2666 78.9941 16.45C78.1775 15.6333 77.4941 14.6916 76.9441 13.625C76.3941 12.5583 75.9858 11.4166 75.7191 10.2C75.4525 8.96664 75.3191 7.70831 75.3191 6.42498V3.82497ZM69.7441 2.37498H82.7441V5.12497H69.7441V2.37498ZM84.8941 0.174975H88.2191V23.325H84.8941V0.174975ZM97.6813 18.075H118.656V20.775H97.6813V18.075ZM106.481 13.675H109.781V19.15H106.481V13.675ZM100.056 1.64997H116.281V9.37498H103.381V13.25H100.081V6.77498H112.981V4.29997H100.056V1.64997ZM100.081 11.95H116.806V14.6H100.081V11.95ZM122.829 2.12497H137.479V4.77497H122.829V2.12497ZM120.679 17.825H141.629V20.525H120.679V17.825ZM128.079 9.87497H131.429V19.175H128.079V9.87497ZM136.279 2.12497H139.629V4.32498C139.629 5.29164 139.613 6.31664 139.579 7.39997C139.563 8.48331 139.488 9.68331 139.354 11C139.238 12.3166 139.021 13.7916 138.704 15.425L135.379 15.075C135.846 12.7583 136.113 10.7416 136.179 9.02498C136.246 7.29164 136.279 5.72498 136.279 4.32498V2.12497Z" fill="black"/>
</svg>
